<svg width="83" height="98" viewBox="0 0 83 98" fill="none" xmlns="http://www.w3.org/2000/svg">
    <g clip-path="url(#clip0_358_66)">
        <path d="M83.0499 0.549986C83.0499 0.669986 83.0699 0.779986 83.0699 0.899986C83.1499 11.44 83.2199 21.99 83.2999 32.54C83.3399 38.57 83.3899 44.61 83.4199 50.64C83.4399 54.99 83.2199 59.33 82.7999 63.65C82.3899 67.84 81.4799 71.91 79.5799 75.72C77.9499 79 75.7799 81.91 73.3399 84.64C68.5899 89.95 62.8799 93.81 56.1399 96.15C53.4599 97.08 50.7199 97.69 47.8999 98.01C46.1599 98.21 44.4099 98.22 42.6699 98.23C42.5899 98.23 42.5099 98.22 42.3799 98.2C42.3799 98.04 42.3799 97.89 42.3799 97.73C42.3199 90.39 42.2699 83.06 42.2099 75.72C42.1299 66.06 42.0199 56.4 41.9899 46.74C41.9799 43.69 42.0899 40.63 42.2799 37.59C42.7099 30.87 44.8799 24.7 48.3499 18.94C51.9599 12.93 56.9499 8.41999 63.0899 5.10999C66.0199 3.52999 69.0399 2.19999 72.3099 1.48999C75.8099 0.739986 79.3499 0.399986 82.9299 0.509986C82.9599 0.509986 82.9999 0.519986 83.0599 0.539986" fill="#024224"/>
        <path d="M37.9602 98.12C36.7102 98.12 35.4902 98.16 34.2702 98.12C31.2002 97.99 28.1502 97.72 25.2102 96.78C21.6902 95.64 18.4402 93.99 15.4402 91.81C9.52017 87.52 5.39017 81.88 2.71017 75.13C1.72017 72.63 1.25017 69.99 0.860168 67.33C0.150168 62.51 0.130166 57.67 0.140166 52.82C0.140166 52.76 0.140169 52.7 0.150169 52.63C0.200169 52.62 0.240166 52.59 0.280166 52.59C4.49017 52.48 8.65016 52.83 12.7002 54.04C16.2902 55.11 19.7202 56.59 22.8402 58.68C26.2202 60.94 28.9102 63.87 31.0502 67.34C33.0202 70.55 34.6002 73.92 35.7102 77.52C36.4902 80.05 36.9502 82.64 37.1802 85.26C37.4802 88.58 37.7202 91.91 37.9402 95.24C38.0002 96.19 37.9502 97.15 37.9502 98.13" fill="#024224"/>
    </g>
    <defs>
        <clipPath id="clip0_358_66">
            <rect width="83" height="98" fill="white"/>
        </clipPath>
    </defs>
</svg>