<svg width="196" height="168" viewBox="0 0 196 168" fill="none" xmlns="http://www.w3.org/2000/svg">
<g clip-path="url(#clip0_358_66)">
<path d="M19.9 119.66C18.08 118.63 16.11 118.12 13.97 118.12C12.15 118.12 10.58 118.49 9.24 119.23C7.9 119.97 6.87 120.89 6.16 122H5.8L5.35 118.63H0V168.29H6.26V151.2C6.78 151.24 7.32 151.28 7.9 151.32C8.47 151.36 9.01 151.38 9.5 151.38C13.17 151.38 16.23 150.75 18.67 149.5C21.11 148.25 22.94 146.35 24.16 143.8C25.38 141.26 25.99 138.04 25.99 134.15C25.99 130.26 25.43 127.03 24.31 124.7C23.19 122.36 21.72 120.68 19.9 119.66ZM17.06 144.12C15.41 145.9 13.04 146.8 9.95 146.8C9.41 146.8 8.78 146.77 8.07 146.71C7.36 146.65 6.75 146.58 6.25 146.5V126.17C6.9 125.14 7.77 124.37 8.88 123.85C9.98 123.33 11.09 123.07 12.22 123.07C13.6 123.07 14.85 123.38 15.96 124C17.07 124.62 17.95 125.77 18.59 127.43C19.23 129.1 19.55 131.52 19.55 134.69C19.55 139.19 18.72 142.33 17.07 144.11L17.06 144.12Z" fill="#024224"/>
<path d="M47.4902 118.27C45.7202 118.27 44.0702 118.65 42.5502 119.41C41.0302 120.17 39.7702 121.38 38.7702 123.03H38.4102L37.9202 118.62H32.7002V150.81H38.9602V127.91C39.5202 127.02 40.2402 126.26 41.1002 125.62C41.9602 124.98 42.9202 124.5 43.9702 124.17C45.0202 123.84 46.0702 123.68 47.1302 123.68C47.5602 123.68 47.9802 123.68 48.3902 123.7C48.8002 123.7 49.2102 123.75 49.6202 123.83V118.44C49.3602 118.38 49.0502 118.34 48.6802 118.31C48.3102 118.28 47.9102 118.27 47.4802 118.27H47.4902Z" fill="#024224"/>
<path d="M73.0102 119.84C70.9902 118.7 68.5902 118.12 65.8002 118.12C63.0102 118.12 60.5802 118.69 58.5502 119.82C56.5302 120.96 54.9702 122.74 53.8802 125.19C52.7902 127.64 52.2402 130.84 52.2402 134.81C52.2402 138.78 52.7802 141.92 53.8802 144.35C54.9702 146.79 56.5302 148.57 58.5602 149.7C60.5902 150.83 63.0002 151.4 65.7902 151.4C68.5802 151.4 71.0102 150.83 73.0302 149.7C75.0502 148.57 76.6002 146.78 77.6802 144.35C78.7602 141.91 79.3002 138.72 79.3002 134.78C79.3002 130.84 78.7502 127.67 77.6602 125.22C76.5702 122.77 75.0102 120.98 72.9902 119.83L73.0102 119.84ZM72.0402 142.27C71.4702 144.01 70.6502 145.21 69.5902 145.89C68.5302 146.57 67.2702 146.91 65.8002 146.91C64.3302 146.91 63.0702 146.57 62.0102 145.89C60.9502 145.21 60.1402 143.99 59.5602 142.22C58.9902 140.46 58.7002 137.94 58.7002 134.69C58.7002 131.44 58.9902 129.02 59.5602 127.28C60.1302 125.53 60.9502 124.32 62.0202 123.64C63.0902 122.96 64.3502 122.62 65.8002 122.62C67.2502 122.62 68.5002 122.97 69.5602 123.66C70.6202 124.35 71.4402 125.58 72.0202 127.34C72.6002 129.11 72.9002 131.63 72.9002 134.9C72.9002 138.17 72.6102 140.53 72.0402 142.27Z" fill="#024224"/>
<path d="M190.01 101.53V118.33C189.49 118.27 188.95 118.23 188.39 118.2C187.83 118.17 187.29 118.16 186.77 118.16C183.1 118.16 180.04 118.79 177.6 120.04C175.16 121.29 173.33 123.19 172.11 125.74C170.89 128.28 170.28 131.5 170.28 135.39C170.28 139.28 170.84 142.51 171.95 144.84C173.06 147.18 174.53 148.86 176.36 149.89C178.19 150.91 180.17 151.43 182.31 151.43C184.15 151.43 185.72 151.05 187.04 150.31C188.36 149.56 189.38 148.63 190.12 147.53H190.48L190.93 150.84H196.28V101.55H190.02L190.01 101.53ZM190.01 143.36C189.36 144.37 188.49 145.14 187.4 145.67C186.31 146.2 185.19 146.47 184.04 146.47C182.64 146.47 181.38 146.16 180.28 145.54C179.18 144.92 178.31 143.77 177.67 142.11C177.03 140.44 176.71 138.02 176.71 134.85C176.71 130.35 177.54 127.21 179.19 125.42C180.84 123.64 183.21 122.74 186.3 122.74C186.86 122.74 187.49 122.77 188.2 122.83C188.9 122.89 189.5 122.96 190 123.04V143.37L190.01 143.36Z" fill="#024224"/>
<path d="M97.7595 132.8L93.8995 131.88C92.5195 131.53 91.4995 131.01 90.8395 130.33C90.1795 129.65 89.8495 128.73 89.8495 127.56C89.8495 126.69 90.0895 125.9 90.5795 125.19C91.0695 124.48 91.8595 123.91 92.9495 123.47C94.0395 123.04 95.4595 122.82 97.2095 122.82C98.4395 122.82 99.5895 122.88 100.66 123C101.73 123.12 102.86 123.32 104.05 123.62V118.86C102.99 118.62 101.88 118.44 100.73 118.31C99.5695 118.18 98.3195 118.12 96.9495 118.12C92.7595 118.12 89.5495 119 87.3395 120.77C85.1195 122.54 84.0195 124.81 84.0195 127.59C84.0195 129.94 84.6595 131.83 85.9295 133.27C87.2095 134.71 89.2195 135.78 91.9895 136.47L95.8495 137.36C97.2095 137.72 98.2395 138.23 98.9495 138.9C99.6495 139.57 99.9995 140.58 99.9995 141.92C99.9995 143.44 99.4295 144.62 98.2995 145.46C97.1595 146.3 95.4395 146.72 93.1295 146.72C91.7695 146.72 90.4095 146.61 89.0495 146.39C87.6895 146.17 86.2895 145.85 84.8695 145.41V150.17C86.1895 150.57 87.5395 150.87 88.9395 151.09C90.3295 151.31 91.7695 151.42 93.2395 151.42C97.1695 151.42 100.26 150.56 102.49 148.84C104.73 147.12 105.84 144.77 105.84 141.77C105.84 139.38 105.22 137.47 103.98 136.01C102.74 134.56 100.67 133.49 97.7695 132.8H97.7595Z" fill="#024224"/>
<path d="M159.88 119.84C158.05 118.7 155.85 118.12 153.28 118.12C150.71 118.12 148.31 118.69 146.36 119.84C144.41 120.99 142.89 122.78 141.82 125.23C140.75 127.68 140.22 130.82 140.22 134.67C140.22 138.71 140.78 141.96 141.89 144.41C143 146.86 144.69 148.64 146.96 149.75C149.23 150.86 152.09 151.42 155.55 151.42C156.91 151.42 158.26 151.33 159.58 151.15C160.91 150.97 162.34 150.68 163.88 150.26V145.5C162.43 145.88 161.09 146.16 159.86 146.36C158.63 146.56 157.44 146.66 156.29 146.66C154.02 146.66 152.17 146.33 150.75 145.67C149.32 145.01 148.28 143.89 147.61 142.3C147.02 140.89 146.7 138.98 146.63 136.63H165.5V134.8C165.5 130.89 165.02 127.71 164.06 125.26C163.1 122.8 161.71 121 159.88 119.86V119.84ZM149.81 123.15C150.8 122.52 151.95 122.2 153.25 122.2C154.55 122.2 155.63 122.52 156.57 123.15C157.51 123.78 158.24 124.91 158.76 126.52C159.24 128.02 159.5 130.11 159.53 132.76H146.61C146.65 130.1 146.93 128.02 147.46 126.52C148.03 124.9 148.82 123.78 149.81 123.15Z" fill="#024224"/>
<path d="M129.83 119.84C128 118.7 125.81 118.12 123.23 118.12C120.65 118.12 118.27 118.69 116.31 119.84C114.35 120.98 112.84 122.78 111.77 125.23C110.7 127.68 110.16 130.82 110.16 134.67C110.16 138.71 110.72 141.96 111.83 144.41C112.94 146.86 114.63 148.64 116.9 149.75C119.17 150.86 122.03 151.42 125.49 151.42C126.85 151.42 128.2 151.33 129.53 151.15C130.86 150.97 132.29 150.68 133.83 150.26V145.5C132.38 145.88 131.04 146.16 129.81 146.36C128.58 146.56 127.39 146.66 126.24 146.66C123.97 146.66 122.12 146.33 120.7 145.67C119.27 145.01 118.22 143.89 117.56 142.3C116.97 140.89 116.65 138.98 116.58 136.63H135.45V134.8C135.45 130.89 134.97 127.71 134.01 125.26C133.05 122.8 131.65 121 129.83 119.86V119.84ZM119.77 123.15C120.76 122.52 121.91 122.2 123.21 122.2C124.51 122.2 125.59 122.52 126.53 123.15C127.47 123.78 128.2 124.91 128.72 126.52C129.2 128.02 129.46 130.11 129.49 132.76H116.57C116.61 130.1 116.89 128.02 117.42 126.52C117.99 124.9 118.78 123.78 119.77 123.15Z" fill="#024224"/>
<path d="M135.05 0.549986C135.05 0.669986 135.07 0.779986 135.07 0.899986C135.15 11.44 135.22 21.99 135.3 32.54C135.34 38.57 135.39 44.61 135.42 50.64C135.44 54.99 135.22 59.33 134.8 63.65C134.39 67.84 133.48 71.91 131.58 75.72C129.95 79 127.78 81.91 125.34 84.64C120.59 89.95 114.88 93.81 108.14 96.15C105.46 97.08 102.72 97.69 99.8999 98.01C98.1599 98.21 96.4099 98.22 94.6699 98.23C94.5899 98.23 94.5099 98.22 94.3799 98.2C94.3799 98.04 94.3799 97.89 94.3799 97.73C94.3199 90.39 94.2699 83.06 94.2099 75.72C94.1299 66.06 94.0199 56.4 93.9899 46.74C93.9799 43.69 94.0899 40.63 94.2799 37.59C94.7099 30.87 96.8799 24.7 100.35 18.94C103.96 12.93 108.95 8.41999 115.09 5.10999C118.02 3.52999 121.04 2.19999 124.31 1.48999C127.81 0.739986 131.35 0.399986 134.93 0.509986C134.96 0.509986 135 0.519986 135.06 0.539986" fill="#024224"/>
<path d="M89.9602 98.12C88.7102 98.12 87.4902 98.16 86.2702 98.12C83.2002 97.99 80.1502 97.72 77.2102 96.78C73.6902 95.64 70.4402 93.99 67.4402 91.81C61.5202 87.52 57.3902 81.88 54.7102 75.13C53.7202 72.63 53.2502 69.99 52.8602 67.33C52.1502 62.51 52.1302 57.67 52.1402 52.82C52.1402 52.76 52.1402 52.7 52.1502 52.63C52.2002 52.62 52.2402 52.59 52.2802 52.59C56.4902 52.48 60.6502 52.83 64.7002 54.04C68.2902 55.11 71.7202 56.59 74.8402 58.68C78.2202 60.94 80.9102 63.87 83.0502 67.34C85.0202 70.55 86.6002 73.92 87.7102 77.52C88.4902 80.05 88.9502 82.64 89.1802 85.26C89.4802 88.58 89.7202 91.91 89.9402 95.24C90.0002 96.19 89.9502 97.15 89.9502 98.13" fill="#024224"/>
</g>
<defs>
<clipPath id="clip0_358_66">
<rect width="196" height="168" fill="white"/>
</clipPath>
</defs>
</svg>