<?xml version="1.0" encoding="UTF-8"?><svg id="Ebene_1" xmlns="http://www.w3.org/2000/svg" viewBox="0 0 196.4 184.16"><defs><style>.cls-1{fill:#1d1d1b;}.cls-1,.cls-2{stroke-width:0px;}.cls-2{fill:#024224;}</style></defs><path class="cls-2" d="m19.9,119.16c-1.82-1.03-3.79-1.54-5.93-1.54-1.82,0-3.39.37-4.73,1.11-1.34.74-2.37,1.66-3.08,2.77h-.36l-.45-3.37H0v49.66h6.26v-17.09c.52.04,1.06.08,1.64.12.57.04,1.11.06,1.6.06,3.67,0,6.73-.63,9.17-1.88,2.44-1.25,4.27-3.15,5.49-5.7,1.22-2.54,1.83-5.76,1.83-9.65s-.56-7.12-1.68-9.45c-1.12-2.34-2.59-4.02-4.41-5.04Zm-2.84,24.46c-1.65,1.78-4.02,2.68-7.11,2.68-.54,0-1.17-.03-1.88-.09-.71-.06-1.32-.13-1.82-.21v-20.33c.65-1.03,1.52-1.8,2.63-2.32,1.1-.52,2.21-.78,3.34-.78,1.38,0,2.63.31,3.74.93,1.11.62,1.99,1.77,2.63,3.43.64,1.67.96,4.09.96,7.26,0,4.5-.83,7.64-2.48,9.42Z"/><path class="cls-2" d="m47.49,117.77c-1.77,0-3.42.38-4.94,1.14-1.52.76-2.78,1.97-3.78,3.62h-.36l-.49-4.41h-5.22v32.19h6.26v-22.9c.56-.89,1.28-1.65,2.14-2.29.86-.64,1.82-1.12,2.87-1.45,1.05-.33,2.1-.49,3.16-.49.43,0,.85,0,1.26.02.41,0,.82.05,1.23.13v-5.39c-.26-.06-.57-.1-.94-.13-.37-.03-.77-.04-1.2-.04Z"/><path class="cls-2" d="m73.01,119.34c-2.02-1.14-4.42-1.72-7.21-1.72s-5.22.57-7.25,1.7c-2.02,1.14-3.58,2.92-4.67,5.37-1.09,2.45-1.64,5.65-1.64,9.62s.54,7.11,1.64,9.54c1.09,2.44,2.65,4.22,4.68,5.35,2.03,1.13,4.44,1.7,7.23,1.7s5.22-.57,7.24-1.7c2.02-1.13,3.57-2.92,4.65-5.35,1.08-2.44,1.62-5.63,1.62-9.57s-.55-7.11-1.64-9.56c-1.09-2.45-2.65-4.24-4.67-5.39Zm-.97,22.43c-.57,1.74-1.39,2.94-2.45,3.62-1.06.68-2.32,1.02-3.79,1.02s-2.73-.34-3.79-1.02c-1.06-.68-1.87-1.9-2.45-3.67-.57-1.76-.86-4.28-.86-7.53s.29-5.67.86-7.41c.57-1.75,1.39-2.96,2.46-3.64,1.07-.68,2.33-1.02,3.78-1.02s2.7.35,3.76,1.04c1.06.69,1.88,1.92,2.46,3.68.58,1.77.88,4.29.88,7.56s-.29,5.63-.86,7.37Z"/><path class="cls-2" d="m190.01,101.03v16.8c-.52-.06-1.06-.1-1.62-.13-.56-.03-1.1-.04-1.62-.04-3.67,0-6.73.63-9.17,1.88-2.44,1.25-4.27,3.15-5.49,5.7-1.22,2.54-1.83,5.76-1.83,9.65s.56,7.12,1.67,9.45c1.11,2.34,2.58,4.02,4.41,5.05,1.83,1.02,3.81,1.54,5.95,1.54,1.84,0,3.41-.38,4.73-1.12,1.32-.75,2.34-1.68,3.08-2.78h.36l.45,3.31h5.35v-49.29h-6.26Zm0,41.83c-.65,1.01-1.52,1.78-2.61,2.31-1.09.53-2.21.8-3.36.8-1.4,0-2.66-.31-3.76-.93-1.1-.62-1.97-1.77-2.61-3.43-.64-1.67-.96-4.09-.96-7.26,0-4.5.83-7.64,2.48-9.43,1.65-1.78,4.02-2.68,7.11-2.68.56,0,1.19.03,1.9.09.7.06,1.3.13,1.8.21v20.33Z"/><path class="cls-2" d="m97.76,132.3l-3.86-.92c-1.38-.35-2.4-.87-3.06-1.55-.66-.68-.99-1.6-.99-2.77,0-.87.24-1.66.73-2.37.49-.71,1.28-1.28,2.37-1.72,1.09-.43,2.51-.65,4.26-.65,1.23,0,2.38.06,3.45.18,1.07.12,2.2.32,3.39.62v-4.76c-1.06-.24-2.17-.42-3.32-.55-1.16-.13-2.41-.19-3.78-.19-4.19,0-7.4.88-9.61,2.65-2.22,1.77-3.32,4.04-3.32,6.82,0,2.35.64,4.24,1.91,5.68,1.28,1.44,3.29,2.51,6.06,3.2l3.86.89c1.36.36,2.39.87,3.1,1.54.7.67,1.05,1.68,1.05,3.02,0,1.52-.57,2.7-1.7,3.54-1.14.84-2.86,1.26-5.17,1.26-1.36,0-2.72-.11-4.08-.33-1.36-.22-2.76-.54-4.18-.98v4.76c1.32.4,2.67.7,4.07.92,1.39.22,2.83.33,4.3.33,3.93,0,7.02-.86,9.25-2.58,2.24-1.72,3.35-4.07,3.35-7.07,0-2.39-.62-4.3-1.86-5.76-1.24-1.45-3.31-2.52-6.21-3.21Z"/><path class="cls-2" d="m159.88,119.34c-1.83-1.14-4.03-1.72-6.6-1.72s-4.97.57-6.92,1.72-3.47,2.94-4.54,5.39c-1.07,2.45-1.6,5.59-1.6,9.44,0,4.04.56,7.29,1.67,9.74,1.11,2.45,2.8,4.23,5.07,5.34,2.27,1.11,5.13,1.67,8.59,1.67,1.36,0,2.71-.09,4.03-.27,1.33-.18,2.76-.47,4.3-.89v-4.76c-1.45.38-2.79.66-4.02.86-1.23.2-2.42.3-3.57.3-2.27,0-4.12-.33-5.54-.99-1.43-.66-2.47-1.78-3.14-3.37-.59-1.41-.91-3.32-.98-5.67h18.87v-1.83c0-3.91-.48-7.09-1.44-9.54-.96-2.46-2.35-4.26-4.18-5.4Zm-10.07,3.31c.99-.63,2.14-.95,3.44-.95s2.38.32,3.32.95c.94.63,1.67,1.76,2.19,3.37.48,1.5.74,3.59.77,6.24h-12.92c.04-2.66.32-4.74.85-6.24.57-1.62,1.36-2.74,2.35-3.37Z"/><path class="cls-2" d="m129.83,119.34c-1.83-1.14-4.02-1.72-6.6-1.72s-4.96.57-6.92,1.72c-1.96,1.14-3.47,2.94-4.54,5.39-1.07,2.45-1.61,5.59-1.61,9.44,0,4.04.56,7.29,1.67,9.74,1.11,2.45,2.8,4.23,5.07,5.34,2.27,1.11,5.13,1.67,8.59,1.67,1.36,0,2.71-.09,4.04-.27,1.33-.18,2.76-.47,4.3-.89v-4.76c-1.45.38-2.79.66-4.02.86-1.23.2-2.42.3-3.57.3-2.27,0-4.12-.33-5.54-.99-1.43-.66-2.48-1.78-3.14-3.37-.59-1.41-.91-3.32-.98-5.67h18.87v-1.83c0-3.91-.48-7.09-1.44-9.54-.96-2.46-2.36-4.26-4.18-5.4Zm-10.06,3.31c.99-.63,2.14-.95,3.44-.95s2.38.32,3.32.95c.94.63,1.67,1.76,2.19,3.37.48,1.5.74,3.59.77,6.24h-12.92c.04-2.66.32-4.74.85-6.24.57-1.62,1.36-2.74,2.35-3.37Z"/><path class="cls-2" d="m135.05.05c0,.12.02.23.02.35.08,10.54.15,21.09.23,31.64.04,6.03.09,12.07.12,18.1.02,4.35-.2,8.69-.62,13.01-.41,4.19-1.32,8.26-3.22,12.07-1.63,3.28-3.8,6.19-6.24,8.92-4.75,5.31-10.46,9.17-17.2,11.51-2.68.93-5.42,1.54-8.24,1.86-1.74.2-3.49.21-5.23.22-.08,0-.16-.01-.29-.03,0-.16,0-.31,0-.47-.06-7.34-.11-14.67-.17-22.01-.08-9.66-.19-19.32-.22-28.98-.01-3.05.1-6.11.29-9.15.43-6.72,2.6-12.89,6.07-18.65,3.61-6.01,8.6-10.52,14.74-13.83,2.93-1.58,5.95-2.91,9.22-3.62,3.5-.75,7.04-1.09,10.62-.98.03,0,.07.01.13.03"/><path class="cls-2" d="m89.96,97.62c-1.25,0-2.47.04-3.69,0-3.07-.13-6.12-.4-9.06-1.34-3.52-1.14-6.77-2.79-9.77-4.97-5.92-4.29-10.05-9.93-12.73-16.68-.99-2.5-1.46-5.14-1.85-7.8-.71-4.82-.73-9.66-.72-14.51,0-.06,0-.12.01-.19.05-.01.09-.04.13-.04,4.21-.11,8.37.24,12.42,1.45,3.59,1.07,7.02,2.55,10.14,4.64,3.38,2.26,6.07,5.19,8.21,8.66,1.97,3.21,3.55,6.58,4.66,10.18.78,2.53,1.24,5.12,1.47,7.74.3,3.32.54,6.65.76,9.98.06.95.01,1.91.01,2.89"/><rect class="cls-1" x="81.73" y="168.16" width="1.28" height="11.22"/><path class="cls-1" d="m66.18,168.56c-.59-.37-1.29-.56-2.11-.56s-1.54.19-2.17.57c-.63.38-1.12.99-1.48,1.84-.36.85-.54,1.97-.54,3.37s.18,2.56.55,3.41c.37.85.92,1.46,1.65,1.84.73.38,1.63.57,2.71.57.42,0,.85-.03,1.29-.09.43-.06.91-.17,1.41-.32v-1.05c-.52.15-.99.25-1.41.32-.42.07-.81.1-1.18.1-.83,0-1.51-.14-2.05-.42-.55-.28-.95-.76-1.23-1.43-.25-.61-.38-1.45-.4-2.48h6.83v-.43c0-1.42-.16-2.55-.49-3.39-.33-.85-.78-1.46-1.37-1.83Zm-4.6,2.17c.25-.66.59-1.12,1.02-1.38.43-.26.92-.39,1.46-.39s1.01.13,1.41.39c.4.26.72.72.94,1.38.21.62.32,1.48.34,2.57h-5.54c.02-1.09.14-1.95.37-2.57Z"/><path class="cls-1" d="m76.46,168.05c-.35-.04-.68-.06-1-.06-1.72,0-3.04.48-3.97,1.44-.93.96-1.4,2.48-1.4,4.56,0,1.42.19,2.54.57,3.34.38.8.88,1.38,1.49,1.72.61.34,1.28.51,1.99.51.66,0,1.23-.12,1.7-.37.48-.25.85-.54,1.12-.87h.08v1.38c0,1.28-.28,2.17-.86,2.67-.57.5-1.42.76-2.55.76-.44,0-.89-.04-1.36-.11-.47-.08-.96-.19-1.46-.35v1.05c.42.15.89.26,1.41.33.52.08,1.02.11,1.49.11,1.51,0,2.66-.35,3.45-1.05.78-.7,1.18-1.88,1.18-3.54v-11.15c-.24-.08-.53-.15-.85-.21-.33-.06-.66-.11-1.01-.15Zm.58,9.05c-.26.46-.64.8-1.12,1.04-.48.24-.97.36-1.48.36-.56,0-1.07-.12-1.53-.37-.46-.25-.82-.71-1.08-1.37-.27-.66-.4-1.62-.4-2.88,0-1.79.35-3.05,1.03-3.78.69-.73,1.67-1.09,2.94-1.09.28,0,.57.02.88.05.3.03.56.08.76.13v7.91Z"/><path class="cls-1" d="m185.14,178.51c-.75,0-1.31-.17-1.67-.52-.36-.35-.55-.97-.55-1.86v-6.94h3.3v-1.02h-3.3v-4.11h-1.08l-.19,4.11h-2.18v1.02h2.18v7.11c0,1.18.29,2.03.87,2.53.58.5,1.38.76,2.4.76.25,0,.51-.02.77-.05s.51-.07.73-.11v-1.07c-.23.05-.45.09-.66.11-.22.03-.42.04-.62.04Z"/><path class="cls-1" d="m57.36,178.51c-.75,0-1.3-.17-1.67-.52-.36-.35-.54-.97-.54-1.86v-6.94h3.3v-1.02h-3.3v-4.11h-1.08l-.19,4.11h-2.18v1.02h2.18v7.11c0,1.18.29,2.03.87,2.53.58.5,1.38.76,2.4.76.25,0,.51-.02.77-.05s.51-.07.73-.11v-1.07c-.23.05-.45.09-.66.11-.22.03-.42.04-.62.04Z"/><polygon class="cls-1" points="195.05 168.16 191.46 178.31 187.92 168.16 186.55 168.16 190.61 179.39 191.04 179.39 189.37 183.95 190.68 183.95 196.4 168.16 195.05 168.16"/><path class="cls-1" d="m23.6,173.34l-1.16-.29c-.61-.16-1.07-.39-1.36-.7-.29-.31-.44-.73-.44-1.27,0-.37.1-.71.31-1.03.2-.31.52-.56.95-.75.43-.19.98-.28,1.64-.28.4,0,.78.02,1.13.06.35.04.73.11,1.14.2v-1.05c-.36-.08-.72-.13-1.09-.18-.37-.04-.78-.06-1.22-.06-1.32,0-2.33.29-3.04.88-.71.59-1.06,1.33-1.06,2.24,0,.75.21,1.37.62,1.86.41.49,1.12.87,2.13,1.12l1.16.29c.6.15,1.05.38,1.37.69.31.31.47.76.47,1.36,0,.68-.24,1.2-.73,1.56-.48.36-1.18.54-2.1.54-.42,0-.85-.03-1.28-.1-.43-.07-.9-.18-1.4-.32v1.05c.42.13.85.23,1.3.31.45.07.91.11,1.39.11,1.28,0,2.28-.28,2.99-.85.72-.57,1.07-1.34,1.07-2.33,0-.77-.2-1.4-.61-1.91-.4-.51-1.14-.89-2.2-1.16Z"/><path class="cls-1" d="m32.95,178.51c-.75,0-1.31-.17-1.67-.52-.36-.35-.55-.97-.55-1.86v-6.94h3.3v-1.02h-3.3v-4.11h-1.08l-.19,4.11h-2.18v1.02h2.18v7.11c0,1.18.29,2.03.88,2.53.58.5,1.38.76,2.4.76.25,0,.51-.02.77-.05s.51-.07.73-.11v-1.07c-.23.05-.45.09-.66.11-.22.03-.42.04-.62.04Z"/><path class="cls-1" d="m48.14,168.34c-.59-.23-1.32-.35-2.18-.35-.48,0-.99.04-1.54.11-.55.08-1.04.19-1.48.33v1.05c.51-.16,1.01-.28,1.52-.35.5-.07.96-.11,1.36-.11.62,0,1.14.08,1.57.23s.74.42.96.81c.22.39.32.93.32,1.62v1.34l-2.49.26c-1.33.12-2.31.45-2.95,1-.63.55-.95,1.31-.95,2.29s.3,1.71.91,2.22c.61.51,1.39.77,2.36.77.64,0,1.23-.12,1.76-.35.53-.23.97-.59,1.33-1.08h.1l.1,1.25h1.09v-7.66c0-.93-.15-1.67-.45-2.22-.3-.54-.75-.93-1.34-1.17Zm-.83,9.88c-.51.22-1,.33-1.47.33-.7,0-1.25-.17-1.65-.52-.39-.35-.59-.88-.59-1.61,0-.67.21-1.19.64-1.57.43-.38,1.09-.6,1.99-.68l2.43-.24v3.05c-.39.6-.85,1.01-1.36,1.23Z"/><path class="cls-1" d="m40.66,168.07c-.61,0-1.2.13-1.76.4-.56.27-1.03.67-1.41,1.22h-.1l-.1-1.52h-1.09v11.22h1.28v-8.38c.21-.39.48-.72.82-.99s.7-.47,1.1-.61.8-.21,1.2-.21c.14,0,.26,0,.37,0,.11,0,.22.01.35.03v-1.13c-.08-.01-.17-.02-.28-.03-.11,0-.24-.01-.37-.01Z"/><path class="cls-1" d="m82.36,163.78c-.3,0-.54.08-.71.24-.17.16-.26.37-.26.64,0,.26.09.46.26.62.17.16.41.23.71.23s.54-.08.72-.23c.17-.15.26-.36.26-.62,0-.27-.09-.48-.26-.64s-.41-.24-.72-.24Z"/><path class="cls-1" d="m173.64,168.07c-.61,0-1.2.13-1.75.4-.56.27-1.03.67-1.41,1.22h-.1l-.1-1.52h-1.09v11.22h1.28v-8.38c.21-.39.48-.72.82-.99.33-.27.7-.47,1.1-.61s.8-.21,1.2-.21c.14,0,.26,0,.37,0,.11,0,.22.01.35.03v-1.13c-.08-.01-.17-.02-.28-.03s-.24-.01-.38-.01Z"/><path class="cls-1" d="m134.28,168.57c-.66-.38-1.43-.58-2.32-.58s-1.67.19-2.32.57c-.65.38-1.16.99-1.52,1.85-.36.85-.54,1.98-.54,3.38s.18,2.52.54,3.37c.36.85.87,1.47,1.53,1.85.66.38,1.43.58,2.32.58s1.68-.19,2.33-.58c.65-.38,1.16-1,1.52-1.85.36-.85.54-1.98.54-3.38s-.18-2.52-.54-3.36c-.36-.85-.87-1.46-1.53-1.85Zm.36,8.14c-.25.69-.6,1.17-1.06,1.45-.46.28-1,.42-1.62.42s-1.16-.14-1.61-.42c-.46-.28-.81-.77-1.06-1.47-.25-.7-.38-1.68-.38-2.94s.12-2.2.38-2.89c.25-.69.6-1.17,1.06-1.45.45-.27.99-.41,1.61-.41s1.16.14,1.61.42c.45.28.81.76,1.06,1.47.25.7.38,1.68.38,2.94s-.12,2.2-.37,2.89Z"/><path class="cls-1" d="m142.58,173.34l-1.16-.29c-.61-.16-1.07-.39-1.36-.7-.29-.31-.44-.73-.44-1.27,0-.37.1-.71.31-1.03.2-.31.52-.56.95-.75.43-.19.97-.28,1.64-.28.4,0,.78.02,1.13.06.35.04.73.11,1.14.2v-1.05c-.36-.08-.72-.13-1.09-.18-.37-.04-.78-.06-1.21-.06-1.32,0-2.33.29-3.04.88-.71.59-1.06,1.33-1.06,2.24,0,.75.21,1.37.62,1.86.41.49,1.12.87,2.13,1.12l1.16.29c.6.15,1.05.38,1.37.69.31.31.47.76.47,1.36,0,.68-.24,1.2-.73,1.56-.48.36-1.18.54-2.1.54-.42,0-.85-.03-1.28-.1-.43-.07-.9-.18-1.4-.32v1.05c.42.13.85.23,1.3.31.45.07.91.11,1.39.11,1.28,0,2.28-.28,2.99-.85.71-.57,1.07-1.34,1.07-2.33,0-.77-.2-1.4-.61-1.91-.4-.51-1.14-.89-2.2-1.16Z"/><path class="cls-1" d="m125.85,168.07c-.61,0-1.2.13-1.75.4-.56.27-1.03.67-1.41,1.22h-.1l-.1-1.52h-1.09v11.22h1.28v-8.38c.21-.39.48-.72.82-.99s.7-.47,1.1-.61c.4-.14.8-.21,1.2-.21.14,0,.26,0,.37,0,.11,0,.22.01.35.03v-1.13c-.08-.01-.17-.02-.28-.03-.11,0-.24-.01-.38-.01Z"/><path class="cls-1" d="m164.66,168.56c-.59-.37-1.29-.56-2.11-.56s-1.54.19-2.17.57c-.63.38-1.12.99-1.48,1.84-.36.85-.54,1.97-.54,3.37s.18,2.56.55,3.41c.37.85.92,1.46,1.65,1.84.73.38,1.63.57,2.71.57.42,0,.85-.03,1.29-.09.44-.06.91-.17,1.41-.32v-1.05c-.52.15-.99.25-1.41.32-.42.07-.81.1-1.18.1-.82,0-1.51-.14-2.05-.42-.54-.28-.95-.76-1.23-1.43-.25-.61-.38-1.45-.4-2.48h6.83v-.43c0-1.42-.16-2.55-.49-3.39-.33-.85-.78-1.46-1.37-1.83Zm-4.6,2.17c.25-.66.59-1.12,1.02-1.38.43-.26.92-.39,1.46-.39s1.01.13,1.41.39c.4.26.72.72.94,1.38.21.62.32,1.48.33,2.57h-5.54c.02-1.09.14-1.95.37-2.57Z"/><path class="cls-1" d="m116.51,168.51c-.62-.34-1.3-.51-2.04-.51-.64,0-1.2.13-1.69.38-.48.26-.85.56-1.12.92h-.1l-.1-1.14h-1.1v15.78h1.28v-4.46c.23.02.49.04.76.06.27.02.53.03.76.03,1.17,0,2.16-.21,2.97-.63.81-.42,1.42-1.07,1.83-1.96.42-.88.62-2.02.62-3.41s-.19-2.54-.57-3.35c-.38-.81-.89-1.38-1.51-1.72Zm-.29,8.96c-.69.73-1.69,1.1-2.98,1.1-.24,0-.52-.01-.82-.04-.31-.02-.56-.05-.77-.09v-7.93c.26-.48.64-.85,1.12-1.09.48-.24.97-.36,1.47-.36.57,0,1.08.12,1.53.37.45.25.82.71,1.08,1.37.27.67.4,1.63.4,2.9,0,1.78-.35,3.03-1.04,3.76Z"/><path class="cls-1" d="m176.95,163.78c-.3,0-.54.08-.72.24s-.26.37-.26.64c0,.26.09.46.26.62.17.16.41.23.72.23s.54-.08.72-.23c.17-.15.26-.36.26-.62,0-.27-.09-.48-.26-.64s-.41-.24-.72-.24Z"/><polygon class="cls-1" points="92.88 168.87 92.88 168.16 85.59 168.16 85.59 169.18 91.36 169.18 85.47 178.68 85.47 179.39 92.99 179.39 92.99 178.38 87 178.38 92.88 168.87"/><path class="cls-1" d="m100.76,168.56c-.59-.37-1.29-.56-2.11-.56s-1.54.19-2.17.57c-.63.38-1.12.99-1.48,1.84-.36.85-.54,1.97-.54,3.37s.18,2.56.55,3.41c.37.85.92,1.46,1.65,1.84.73.38,1.63.57,2.71.57.42,0,.85-.03,1.29-.09.44-.06.91-.17,1.41-.32v-1.05c-.52.15-.99.25-1.41.32-.42.07-.81.1-1.18.1-.83,0-1.51-.14-2.05-.42-.55-.28-.95-.76-1.23-1.43-.25-.61-.38-1.45-.4-2.48h6.83v-.43c0-1.42-.16-2.55-.49-3.39-.33-.85-.78-1.46-1.37-1.83Zm-4.6,2.17c.25-.66.59-1.12,1.02-1.38.43-.26.92-.39,1.46-.39s1.01.13,1.41.39c.4.26.72.72.94,1.38.21.62.32,1.48.33,2.57h-5.54c.02-1.09.14-1.95.37-2.57Z"/><path class="cls-1" d="m154.06,168.51c-.62-.34-1.3-.51-2.04-.51-.64,0-1.21.13-1.69.38-.48.26-.85.56-1.12.92h-.1l-.1-1.14h-1.1v15.78h1.28v-4.46c.23.02.49.04.76.06.27.02.53.03.76.03,1.17,0,2.16-.21,2.97-.63.81-.42,1.42-1.07,1.83-1.96.42-.88.62-2.02.62-3.41s-.19-2.54-.57-3.35c-.38-.81-.89-1.38-1.51-1.72Zm-.29,8.96c-.69.73-1.69,1.1-2.98,1.1-.24,0-.52-.01-.82-.04-.31-.02-.56-.05-.77-.09v-7.93c.27-.48.64-.85,1.12-1.09.48-.24.97-.36,1.46-.36.57,0,1.08.12,1.53.37.45.25.82.71,1.08,1.37s.4,1.63.4,2.9c0,1.78-.35,3.03-1.04,3.76Z"/><rect class="cls-1" x="176.32" y="168.16" width="1.28" height="11.22"/></svg>