<svg width="196" height="168" viewBox="0 0 196 168" fill="none" xmlns="http://www.w3.org/2000/svg">
<g clip-path="url(#clip0_358_98)">
<path d="M19.9 119.16C18.08 118.13 16.11 117.62 13.97 117.62C12.15 117.62 10.58 117.99 9.24 118.73C7.9 119.47 6.87 120.39 6.16 121.5H5.8L5.35 118.13H0V167.79H6.26V150.7C6.78 150.74 7.32 150.78 7.9 150.82C8.47 150.86 9.01 150.88 9.5 150.88C13.17 150.88 16.23 150.25 18.67 149C21.11 147.75 22.94 145.85 24.16 143.3C25.38 140.76 25.99 137.54 25.99 133.65C25.99 129.76 25.43 126.53 24.31 124.2C23.19 121.86 21.72 120.18 19.9 119.16ZM17.06 143.62C15.41 145.4 13.04 146.3 9.95 146.3C9.41 146.3 8.78 146.27 8.07 146.21C7.36 146.15 6.75 146.08 6.25 146V125.67C6.9 124.64 7.77 123.87 8.88 123.35C9.98 122.83 11.09 122.57 12.22 122.57C13.6 122.57 14.85 122.88 15.96 123.5C17.07 124.12 17.95 125.27 18.59 126.93C19.23 128.6 19.55 131.02 19.55 134.19C19.55 138.69 18.72 141.83 17.07 143.61L17.06 143.62Z" fill="white"/>
<path d="M47.4902 117.77C45.7202 117.77 44.0702 118.15 42.5502 118.91C41.0302 119.67 39.7702 120.88 38.7702 122.53H38.4102L37.9202 118.12H32.7002V150.31H38.9602V127.41C39.5202 126.52 40.2402 125.76 41.1002 125.12C41.9602 124.48 42.9202 124 43.9702 123.67C45.0202 123.34 46.0702 123.18 47.1302 123.18C47.5602 123.18 47.9802 123.18 48.3902 123.2C48.8002 123.2 49.2102 123.25 49.6202 123.33V117.94C49.3602 117.88 49.0502 117.84 48.6802 117.81C48.3102 117.78 47.9102 117.77 47.4802 117.77H47.4902Z" fill="white"/>
<path d="M73.0102 119.34C70.9902 118.2 68.5902 117.62 65.8002 117.62C63.0102 117.62 60.5802 118.19 58.5502 119.32C56.5302 120.46 54.9702 122.24 53.8802 124.69C52.7902 127.14 52.2402 130.34 52.2402 134.31C52.2402 138.28 52.7802 141.42 53.8802 143.85C54.9702 146.29 56.5302 148.07 58.5602 149.2C60.5902 150.33 63.0002 150.9 65.7902 150.9C68.5802 150.9 71.0102 150.33 73.0302 149.2C75.0502 148.07 76.6002 146.28 77.6802 143.85C78.7602 141.41 79.3002 138.22 79.3002 134.28C79.3002 130.34 78.7502 127.17 77.6602 124.72C76.5702 122.27 75.0102 120.48 72.9902 119.33L73.0102 119.34ZM72.0402 141.77C71.4702 143.51 70.6502 144.71 69.5902 145.39C68.5302 146.07 67.2702 146.41 65.8002 146.41C64.3302 146.41 63.0702 146.07 62.0102 145.39C60.9502 144.71 60.1402 143.49 59.5602 141.72C58.9902 139.96 58.7002 137.44 58.7002 134.19C58.7002 130.94 58.9902 128.52 59.5602 126.78C60.1302 125.03 60.9502 123.82 62.0202 123.14C63.0902 122.46 64.3502 122.12 65.8002 122.12C67.2502 122.12 68.5002 122.47 69.5602 123.16C70.6202 123.85 71.4402 125.08 72.0202 126.84C72.6002 128.61 72.9002 131.13 72.9002 134.4C72.9002 137.67 72.6102 140.03 72.0402 141.77Z" fill="white"/>
<path d="M190.01 101.03V117.83C189.49 117.77 188.95 117.73 188.39 117.7C187.83 117.67 187.29 117.66 186.77 117.66C183.1 117.66 180.04 118.29 177.6 119.54C175.16 120.79 173.33 122.69 172.11 125.24C170.89 127.78 170.28 131 170.28 134.89C170.28 138.78 170.84 142.01 171.95 144.34C173.06 146.68 174.53 148.36 176.36 149.39C178.19 150.41 180.17 150.93 182.31 150.93C184.15 150.93 185.72 150.55 187.04 149.81C188.36 149.06 189.38 148.13 190.12 147.03H190.48L190.93 150.34H196.28V101.05H190.02L190.01 101.03ZM190.01 142.86C189.36 143.87 188.49 144.64 187.4 145.17C186.31 145.7 185.19 145.97 184.04 145.97C182.64 145.97 181.38 145.66 180.28 145.04C179.18 144.42 178.31 143.27 177.67 141.61C177.03 139.94 176.71 137.52 176.71 134.35C176.71 129.85 177.54 126.71 179.19 124.92C180.84 123.14 183.21 122.24 186.3 122.24C186.86 122.24 187.49 122.27 188.2 122.33C188.9 122.39 189.5 122.46 190 122.54V142.87L190.01 142.86Z" fill="white"/>
<path d="M97.7595 132.3L93.8995 131.38C92.5195 131.03 91.4995 130.51 90.8395 129.83C90.1795 129.15 89.8495 128.23 89.8495 127.06C89.8495 126.19 90.0895 125.4 90.5795 124.69C91.0695 123.98 91.8595 123.41 92.9495 122.97C94.0395 122.54 95.4595 122.32 97.2095 122.32C98.4395 122.32 99.5895 122.38 100.66 122.5C101.73 122.62 102.86 122.82 104.05 123.12V118.36C102.99 118.12 101.88 117.94 100.73 117.81C99.5695 117.68 98.3195 117.62 96.9495 117.62C92.7595 117.62 89.5495 118.5 87.3395 120.27C85.1195 122.04 84.0195 124.31 84.0195 127.09C84.0195 129.44 84.6595 131.33 85.9295 132.77C87.2095 134.21 89.2195 135.28 91.9895 135.97L95.8495 136.86C97.2095 137.22 98.2395 137.73 98.9495 138.4C99.6495 139.07 99.9995 140.08 99.9995 141.42C99.9995 142.94 99.4295 144.12 98.2995 144.96C97.1595 145.8 95.4395 146.22 93.1295 146.22C91.7695 146.22 90.4095 146.11 89.0495 145.89C87.6895 145.67 86.2895 145.35 84.8695 144.91V149.67C86.1895 150.07 87.5395 150.37 88.9395 150.59C90.3295 150.81 91.7695 150.92 93.2395 150.92C97.1695 150.92 100.26 150.06 102.49 148.34C104.73 146.62 105.84 144.27 105.84 141.27C105.84 138.88 105.22 136.97 103.98 135.51C102.74 134.06 100.67 132.99 97.7695 132.3H97.7595Z" fill="white"/>
<path d="M159.88 119.34C158.05 118.2 155.85 117.62 153.28 117.62C150.71 117.62 148.31 118.19 146.36 119.34C144.41 120.49 142.89 122.28 141.82 124.73C140.75 127.18 140.22 130.32 140.22 134.17C140.22 138.21 140.78 141.46 141.89 143.91C143 146.36 144.69 148.14 146.96 149.25C149.23 150.36 152.09 150.92 155.55 150.92C156.91 150.92 158.26 150.83 159.58 150.65C160.91 150.47 162.34 150.18 163.88 149.76V145C162.43 145.38 161.09 145.66 159.86 145.86C158.63 146.06 157.44 146.16 156.29 146.16C154.02 146.16 152.17 145.83 150.75 145.17C149.32 144.51 148.28 143.39 147.61 141.8C147.02 140.39 146.7 138.48 146.63 136.13H165.5V134.3C165.5 130.39 165.02 127.21 164.06 124.76C163.1 122.3 161.71 120.5 159.88 119.36V119.34ZM149.81 122.65C150.8 122.02 151.95 121.7 153.25 121.7C154.55 121.7 155.63 122.02 156.57 122.65C157.51 123.28 158.24 124.41 158.76 126.02C159.24 127.52 159.5 129.61 159.53 132.26H146.61C146.65 129.6 146.93 127.52 147.46 126.02C148.03 124.4 148.82 123.28 149.81 122.65Z" fill="white"/>
<path d="M129.83 119.34C128 118.2 125.81 117.62 123.23 117.62C120.65 117.62 118.27 118.19 116.31 119.34C114.35 120.48 112.84 122.28 111.77 124.73C110.7 127.18 110.16 130.32 110.16 134.17C110.16 138.21 110.72 141.46 111.83 143.91C112.94 146.36 114.63 148.14 116.9 149.25C119.17 150.36 122.03 150.92 125.49 150.92C126.85 150.92 128.2 150.83 129.53 150.65C130.86 150.47 132.29 150.18 133.83 149.76V145C132.38 145.38 131.04 145.66 129.81 145.86C128.58 146.06 127.39 146.16 126.24 146.16C123.97 146.16 122.12 145.83 120.7 145.17C119.27 144.51 118.22 143.39 117.56 141.8C116.97 140.39 116.65 138.48 116.58 136.13H135.45V134.3C135.45 130.39 134.97 127.21 134.01 124.76C133.05 122.3 131.65 120.5 129.83 119.36V119.34ZM119.77 122.65C120.76 122.02 121.91 121.7 123.21 121.7C124.51 121.7 125.59 122.02 126.53 122.65C127.47 123.28 128.2 124.41 128.72 126.02C129.2 127.52 129.46 129.61 129.49 132.26H116.57C116.61 129.6 116.89 127.52 117.42 126.02C117.99 124.4 118.78 123.28 119.77 122.65Z" fill="white"/>
<path d="M135.05 0.0500017C135.05 0.170002 135.07 0.280002 135.07 0.400002C135.15 10.94 135.22 21.49 135.3 32.04C135.34 38.07 135.39 44.11 135.42 50.14C135.44 54.49 135.22 58.83 134.8 63.15C134.39 67.34 133.48 71.41 131.58 75.22C129.95 78.5 127.78 81.41 125.34 84.14C120.59 89.45 114.88 93.31 108.14 95.65C105.46 96.58 102.72 97.19 99.8999 97.51C98.1599 97.71 96.4099 97.72 94.6699 97.73C94.5899 97.73 94.5099 97.72 94.3799 97.7C94.3799 97.54 94.3799 97.39 94.3799 97.23C94.3199 89.89 94.2699 82.56 94.2099 75.22C94.1299 65.56 94.0199 55.9 93.9899 46.24C93.9799 43.19 94.0899 40.13 94.2799 37.09C94.7099 30.37 96.8799 24.2 100.35 18.44C103.96 12.43 108.95 7.92 115.09 4.61C118.02 3.03 121.04 1.7 124.31 0.990002C127.81 0.240002 131.35 -0.0999983 134.93 0.0100017C134.96 0.0100017 135 0.0200016 135.06 0.0400016" fill="white"/>
<path d="M89.9602 97.62C88.7102 97.62 87.4902 97.66 86.2702 97.62C83.2002 97.49 80.1502 97.22 77.2102 96.28C73.6902 95.14 70.4402 93.49 67.4402 91.31C61.5202 87.02 57.3902 81.38 54.7102 74.63C53.7202 72.13 53.2502 69.49 52.8602 66.83C52.1502 62.01 52.1302 57.17 52.1402 52.32C52.1402 52.26 52.1402 52.2 52.1502 52.13C52.2002 52.12 52.2402 52.09 52.2802 52.09C56.4902 51.98 60.6502 52.33 64.7002 53.54C68.2902 54.61 71.7202 56.09 74.8402 58.18C78.2202 60.44 80.9102 63.37 83.0502 66.84C85.0202 70.05 86.6002 73.42 87.7102 77.02C88.4902 79.55 88.9502 82.14 89.1802 84.76C89.4802 88.08 89.7202 91.41 89.9402 94.74C90.0002 95.69 89.9502 96.65 89.9502 97.63" fill="white"/>
</g>
<defs>
<clipPath id="clip0_358_98">
<rect width="196" height="168" fill="white"/>
</clipPath>
</defs>
</svg>